<svg width="64" height="64" viewBox="0 0 64 64" fill="none" xmlns="http://www.w3.org/2000/svg" shape-rendering="crispEdges">
  <rect width="64" height="64" rx="14" fill="#02060f"/>
  <g fill="#f5ecd6">
    <rect x="20" y="8" width="18" height="11"/>
    <circle cx="25" cy="13.5" r="1.2" fill="#0b1322"/>
    <circle cx="29" cy="13.5" r="1.2" fill="#0b1322"/>
    <circle cx="33" cy="13.5" r="1.2" fill="#0b1322"/>
  </g>
  <g fill="#2dd4bf">
    <rect x="44" y="23" width="14" height="10"/>
    <circle cx="48" cy="28" r="1.1" fill="#04231f"/>
    <circle cx="51" cy="28" r="1.1" fill="#04231f"/>
    <circle cx="54" cy="28" r="1.1" fill="#04231f"/>
  </g>
  <g fill="#a855f7">
    <rect x="22" y="45" width="16" height="10"/>
    <circle cx="27" cy="50" r="1.2" fill="#1a0b2e"/>
    <circle cx="30" cy="50" r="1.2" fill="#1a0b2e"/>
    <circle cx="33" cy="50" r="1.2" fill="#1a0b2e"/>
  </g>
  <g fill="#f4513b">
    <rect x="6" y="31" width="12" height="10"/>
    <circle cx="10" cy="36" r="1.2" fill="#2e0a06"/>
    <circle cx="14" cy="36" r="1.2" fill="#2e0a06"/>
  </g>
  <g fill="#f59e0b">
    <rect x="26" y="26" width="3" height="12"/>
    <rect x="35" y="26" width="3" height="12"/>
    <rect x="29" y="28" width="3" height="3"/>
    <rect x="32" y="28" width="3" height="3"/>
  </g>
</svg>
